<svg width="25" height="29" viewBox="0 0 25 29" fill="none" xmlns="http://www.w3.org/2000/svg">
<path fill-rule="evenodd" clip-rule="evenodd" d="M12.594 2.21603C10.3161 2.21603 8.13142 3.12094 6.52066 4.7317C4.9099 6.34246 4.00499 8.52712 4.00499 10.8051H2.09631C2.09631 8.0209 3.20232 5.35077 5.17103 3.38206C7.13973 1.41336 9.80987 0.30735 12.594 0.30735C15.3782 0.30735 18.0483 1.41336 20.017 3.38206C21.9858 5.35077 23.0918 8.0209 23.0918 10.8051H21.1831C21.1831 8.52712 20.2782 6.34246 18.6674 4.7317C17.0566 3.12094 14.872 2.21603 12.594 2.21603Z" fill="#323334"/>
<path fill-rule="evenodd" clip-rule="evenodd" d="M0.397599 10.2077C0.487042 10.0962 0.600364 10.0063 0.729201 9.94454C0.858037 9.88277 0.999101 9.85071 1.14198 9.85073H24.0461C24.1889 9.85079 24.3299 9.88289 24.4586 9.94468C24.5874 10.0065 24.7006 10.0963 24.79 10.2077C24.8794 10.3191 24.9426 10.4491 24.9751 10.5881C25.0075 10.7272 25.0084 10.8718 24.9775 11.0112L21.4923 26.6948C21.3511 27.3308 20.9974 27.8996 20.4893 28.3073C19.9813 28.715 19.3494 28.9373 18.698 28.9375H6.49009C5.83867 28.9373 5.20678 28.715 4.69875 28.3073C4.19072 27.8996 3.83693 27.3308 3.69579 26.6948L0.210548 11.0112C0.179925 10.8721 0.18083 10.7279 0.213197 10.5892C0.245564 10.4505 0.308571 10.3208 0.397599 10.2096V10.2077ZM2.33109 11.7594L5.55866 26.2806C5.60558 26.4927 5.72346 26.6825 5.89281 26.8185C6.06217 26.9545 6.27287 27.0287 6.49009 27.0288H18.698C18.9152 27.0287 19.1259 26.9545 19.2953 26.8185C19.4646 26.6825 19.5825 26.4927 19.6294 26.2806L22.8551 11.7594H2.333H2.33109Z" fill="#323334"/>
</svg>
